<?xml version="1.0" encoding="iso-8859-1"?>
<!-- Generator: Adobe Illustrator 19.0.0, SVG Export Plug-In . SVG Version: 6.00 Build 0)  -->
<svg version="1.1" id="Layer_1" xmlns="http://www.w3.org/2000/svg" xmlns:xlink="http://www.w3.org/1999/xlink" x="0px" y="0px"
	 viewBox="0 0 512 512" style="enable-background:new 0 0 512 512;" xml:space="preserve">
<g id="Others">
</g>
<g id="Design">
</g>
<g id="SEO_x2F__Web">
	<g id="crown">
		
			<radialGradient id="SVGID_1_" cx="256" cy="258" r="256" gradientTransform="matrix(1 0 0 -1 0 514)" gradientUnits="userSpaceOnUse">
			<stop  offset="0.0051" style="stop-color:#33495F"/>
			<stop  offset="1" style="stop-color:#2B3E51"/>
		</radialGradient>
		<circle style="fill:url(#SVGID_1_);" cx="256" cy="256" r="256"/>
		<path style="fill:#F89B36;" d="M219.1,263.636L162.384,210.7c4.014-2.657,6.665-7.208,6.665-12.383
			c0-8.198-6.645-14.845-14.844-14.845s-14.846,6.646-14.846,14.845c0,8.155,6.581,14.771,14.721,14.839l-12.176,77.624
			L219.1,263.636z"/>
		<path style="fill:#F89B36;" d="M292.9,263.636l56.715-52.936c-4.014-2.657-6.664-7.208-6.664-12.383
			c0-8.198,6.645-14.845,14.844-14.845s14.846,6.646,14.846,14.845c0,8.155-6.581,14.771-14.723,14.839l12.178,77.624L292.9,263.636
			z"/>
		<g>
			<path style="fill:#F4CC64;" d="M344.273,276.89l-88.486-129.789L167.142,276.89l-74.649-72.105l16.117,136.574
				c22.904,56.836,271.24,56.836,294.145,0l16.012-136.574L344.273,276.89z"/>
			<path style="fill:#F89B36;" d="M109.544,221.255l-17.052-16.471l3.218,27.274C101.914,230.978,107.059,226.846,109.544,221.255z"
				/>
			<path style="fill:#F89B36;" d="M402.246,220.775c2.309,5.619,7.273,9.859,13.336,11.157l3.184-27.148L402.246,220.775z"/>
			<path style="fill:#F4C342;" d="M255.682,371.261c-76.779,0-125.945-16.958-134.668-33.372l-11.705-99.169l59.838,57.797
				l86.631-126.841l86.492,126.863l59.703-57.791l-11.624,99.145C381.619,354.306,332.457,371.261,255.682,371.261z"/>
			<path style="fill:#F89B36;" d="M271.191,169.692L255.787,147.1l-15.577,22.809c3.36,4.921,9.011,8.153,15.419,8.153
				C262.129,178.062,267.848,174.734,271.191,169.692z"/>
			<g>
				<circle style="fill:#F4C342;" cx="92.492" cy="200.967" r="18.663"/>
				<circle style="fill:#F4C342;" cx="419.508" cy="200.967" r="18.663"/>
			</g>
			<g>
				<circle style="fill:#F4C342;" cx="92.492" cy="200.967" r="18.663"/>
				<path style="fill:#F4CC64;" d="M84.857,205.633c-4.678,0-8.484-3.807-8.484-8.483s3.807-8.483,8.484-8.483
					s8.482,3.807,8.482,8.483S89.534,205.633,84.857,205.633z"/>
				<circle style="fill:#F4C342;" cx="419.508" cy="200.967" r="18.663"/>
				<path style="fill:#F4CC64;" d="M413.146,204.36c-4.677,0-8.483-3.806-8.483-8.483s3.807-8.483,8.483-8.483
					s8.483,3.807,8.483,8.483C421.629,200.555,417.822,204.36,413.146,204.36z"/>
			</g>
			<circle style="fill:#F4C342;" cx="255.629" cy="146.676" r="18.662"/>
			<circle style="fill:#F4CC64;" cx="250.539" cy="141.586" r="8.482"/>
			<g>
				<path style="fill:#F89B36;" d="M244.891,361c-2.799,0-6.081-1.496-7.293-4.02l-16.207-33.075
					c-1.21-2.522-2.391-6.593-2.391-9.392V296.52c0-2.8,1.181-7.155,2.391-9.678l16.114-33.809c1.211-2.523,4.587-5.034,7.386-5.034
					h22.125c2.799,0,6.057,2.523,7.236,5.062l15.555,33.562c1.18,2.539,2.193,7.129,2.193,9.929v17.928
					c0,2.8-1.014,7.166-2.193,9.705l-15.53,32.768c-1.18,2.541-4.462,4.047-7.261,4.047L244.891,361L244.891,361z"/>
				<polygon style="fill:#C6362B;" points="243.004,356 224,318.445 224,292.589 243.004,253 268.859,253 287,292.589 287,318.445 
					268.859,356 				"/>
				<polygon style="fill:#EE483C;" points="248.846,333 238,312.558 238,298.477 248.846,276 262.928,276 273,298.477 273,312.558 
					262.928,333 				"/>
				<polygon style="opacity:0.4;fill:#2A3E4F;enable-background:new    ;" points="242.859,253 248.846,276 262.639,276 
					268.859,253 				"/>
				<polygon style="opacity:0.4;fill:#2A3E4F;enable-background:new    ;" points="238,298.692 224,292.589 224,318.877 
					238,312.558 				"/>
				<polygon style="opacity:0.4;fill:#2A3E4F;enable-background:new    ;" points="242.859,356 248.846,333 262.639,333 
					268.859,356 				"/>
				<polygon style="opacity:0.4;fill:#2A3E4F;enable-background:new    ;" points="273,298.692 287,292.589 287,318.877 
					273,312.558 				"/>
			</g>
			<g>
				<g>
					<path style="fill:#F89B36;" d="M225.885,363.412c-51.393,0-94.858-28.372-96.684-29.58c-2.637-1.746-3.36-5.299-1.615-7.936
						c1.744-2.638,5.295-3.359,7.932-1.616l0,0c0.42,0.275,42.504,27.681,90.367,27.681c3.162,0,5.727,2.563,5.727,5.726
						C231.611,360.85,229.047,363.412,225.885,363.412z"/>
				</g>
				<g>
					<path style="fill:#F89B36;" d="M285.396,363.412c-3.162,0-5.727-2.562-5.727-5.726c0-3.162,2.564-5.726,5.727-5.726
						c47.983,0,89.945-27.402,90.363-27.68c2.638-1.746,6.189-1.022,7.936,1.615c1.745,2.637,1.021,6.189-1.615,7.936
						C380.255,335.04,336.789,363.412,285.396,363.412z"/>
				</g>
			</g>
			<path style="fill:#F4CC64;" d="M197.352,299.604c-0.752-2.697-2.668-3.017-4.257-0.711l-13.946,20.247
				c-1.589,2.305-0.809,5.147,1.735,6.318l22.563,10.378c2.543,1.171,4.008-0.078,3.254-2.774L197.352,299.604z"/>
			<path style="fill:#F4CC64;" d="M126.203,272.416c-1.861-2.09-3.045-1.535-2.63,1.234l4.215,28.105
				c0.415,2.768,3.028,4.749,5.806,4.402l15.349-1.919c2.777-0.347,3.526-2.341,1.665-4.431L126.203,272.416z"/>
			<path style="fill:#F4CC64;" d="M313.93,299.604c0.752-2.697,2.668-3.017,4.257-0.711l13.946,20.247
				c1.589,2.305,0.809,5.147-1.735,6.318l-22.563,10.378c-2.543,1.171-4.008-0.078-3.254-2.774L313.93,299.604z"/>
			<path style="fill:#F4CC64;" d="M385.078,272.416c1.862-2.09,3.045-1.535,2.63,1.234l-4.215,28.105
				c-0.415,2.768-3.028,4.749-5.806,4.402l-15.349-1.919c-2.777-0.347-3.526-2.341-1.665-4.431L385.078,272.416z"/>
		</g>
	</g>
</g>
<g id="Finance__x2F__Money">
</g>
<g id="E-Commerce__x2F__Shopping">
</g>
<g id="Strategy">
</g>
<g>
</g>
<g>
</g>
<g>
</g>
<g>
</g>
<g>
</g>
<g>
</g>
<g>
</g>
<g>
</g>
<g>
</g>
<g>
</g>
<g>
</g>
<g>
</g>
<g>
</g>
<g>
</g>
<g>
</g>
</svg>
