<?xml version="1.0" encoding="iso-8859-1"?>
<!-- Generator: Adobe Illustrator 19.0.0, SVG Export Plug-In . SVG Version: 6.00 Build 0)  -->
<svg version="1.1" id="Layer_1" xmlns="http://www.w3.org/2000/svg" xmlns:xlink="http://www.w3.org/1999/xlink" x="0px" y="0px"
	 viewBox="0 0 512 512" style="enable-background:new 0 0 512 512;" xml:space="preserve">
<circle style="fill:#386895;" cx="256" cy="256" r="256"/>
<path style="fill:#273B7A;" d="M512,256c0-10.23-0.619-20.314-1.786-30.23L369.778,85.333L268.719,258.269L113.778,369.778L256,512
	l0,0C397.384,512,512,397.384,512,256z"/>
<rect x="113.778" y="170.667" style="fill:#FFC61B;" width="141.653" height="199.111"/>
<rect x="255.431" y="170.667" style="fill:#EAA22F;" width="142.791" height="199.111"/>
<polygon style="fill:#FEE187;" points="113.778,170.667 256,56.889 398.222,170.667 256,284.444 "/>
<polygon style="fill:#FFC61B;" points="398.222,170.667 256,56.889 255.426,57.347 255.426,283.986 256,284.444 "/>
<polygon style="fill:#FFFFFF;" points="142.222,85.333 142.222,193.422 256,284.444 369.778,193.422 369.778,85.333 "/>
<polygon style="fill:#D0D1D3;" points="255.426,85.333 255.426,283.986 256,284.444 369.778,193.422 369.778,85.333 "/>
<path style="fill:#FF314F;" d="M217.212,156.839c0-13.419,8.683-19.394,19.394-19.394c10.711,0,19.394,8.683,19.394,19.394
	c0-10.711,8.683-19.394,19.394-19.394c10.711,0,19.394,8.326,19.394,19.394c0,27.133-38.788,42.02-38.788,42.02
	S217.212,184.167,217.212,156.839z"/>
<path style="fill:#A30F44;" d="M275.394,137.445c-10.711,0-19.394,8.683-19.394,19.394c0-1.589-0.212-3.127-0.574-4.606v46.397
	c0.36,0.147,0.574,0.228,0.574,0.228s38.788-14.888,38.788-42.02C294.788,145.772,286.105,137.445,275.394,137.445z"/>
<polygon style="fill:#FFEDB5;" points="398.222,369.778 256,256 113.778,369.778 "/>
<polygon style="fill:#FEE187;" points="256,256 255.426,256.459 255.426,369.778 398.222,369.778 "/>
<g>
</g>
<g>
</g>
<g>
</g>
<g>
</g>
<g>
</g>
<g>
</g>
<g>
</g>
<g>
</g>
<g>
</g>
<g>
</g>
<g>
</g>
<g>
</g>
<g>
</g>
<g>
</g>
<g>
</g>
</svg>
